<svg width="64" height="69" viewBox="0 0 64 69" fill="none" xmlns="http://www.w3.org/2000/svg">
<path fill-rule="evenodd" clip-rule="evenodd" d="M19.0729 0C17.552 0 16.3284 1.21682 16.3284 2.72288V12.0099C16.3284 13.521 17.551 14.7378 19.0729 14.7378C20.5886 14.7378 21.8133 13.521 21.8133 12.0099V8.84352C23.0747 9.72747 23.8234 11.1584 23.8234 12.6919C23.8234 15.2981 21.6958 17.412 19.0729 17.412C16.4448 17.412 14.3173 15.2981 14.3173 12.6919V4.89063H10.9548C9.08264 4.89063 7.30133 5.36051 5.90611 6.46062C4.51293 7.56479 3.62943 9.27788 3.43843 11.2335L0.698037 54.2181C0.570363 56.195 1.01671 58.0979 2.19846 59.54C3.37919 60.9842 5.24629 61.8874 7.31461 61.8874H41.0113C40.9899 61.6601 40.9786 61.4327 40.9786 61.2105V57.8005H7.78343C6.77327 57.8005 6.15635 57.4514 5.69264 56.8861C5.22995 56.3259 4.98482 55.4745 5.04304 54.3926L6.78859 20.8585H58.0594L59.3627 45.886L63.8047 48.7997L61.4054 11.2335C61.2185 9.27788 60.336 7.56479 58.9418 6.46062C57.5436 5.36051 55.7622 4.89063 53.889 4.89063H48.5155V2.72288C48.5155 1.21682 47.2929 0 45.7771 0C44.2542 0 43.0316 1.21682 43.0316 2.72288V12.0099C43.0316 13.521 44.2542 14.7378 45.7771 14.7378C47.2929 14.7378 48.5155 13.521 48.5155 12.0099V8.84352C49.7769 9.72747 50.5266 11.1584 50.5266 12.6919C50.5266 15.2981 48.398 17.412 45.7761 17.412C43.1532 17.412 41.0246 15.2981 41.0246 12.6919V4.89063H21.8133V2.72288C21.8133 1.21581 20.5886 0 19.0729 0Z" fill="white"/>
<path fill-rule="evenodd" clip-rule="evenodd" d="M13.9771 27.8083H20.797C21.7969 27.8083 22.5997 28.607 22.5997 29.5995V34.8859C22.5997 35.8795 21.7959 36.6772 20.797 36.6772H13.9771C12.9772 36.6772 12.1744 35.8785 12.1744 34.8859V29.5995C12.1744 28.607 12.9772 27.8083 13.9771 27.8083Z" fill="white"/>
<path fill-rule="evenodd" clip-rule="evenodd" d="M29.0161 27.8083H35.8359C36.8359 27.8083 37.6387 28.607 37.6387 29.5995V34.8859C37.6387 35.8795 36.8349 36.6772 35.8359 36.6772H29.0161C28.0162 36.6772 27.2133 35.8785 27.2133 34.8859V29.5995C27.2133 28.607 28.0162 27.8083 29.0161 27.8083Z" fill="white"/>
<path fill-rule="evenodd" clip-rule="evenodd" d="M44.0551 27.8083H50.8749C51.8748 27.8083 52.6776 28.607 52.6776 29.5995V34.8859C52.6776 35.8795 51.8738 36.6772 50.8749 36.6772H44.0551C43.0551 36.6772 42.2523 35.8785 42.2523 34.8859V29.5995C42.2513 28.607 43.0551 27.8083 44.0551 27.8083Z" fill="white"/>
<path fill-rule="evenodd" clip-rule="evenodd" d="M13.9771 41.9798H20.797C21.7969 41.9798 22.5997 42.7826 22.5997 43.7772V49.0575C22.5997 50.0521 21.7959 50.8548 20.797 50.8548H13.9771C12.9772 50.8548 12.1744 50.0521 12.1744 49.0575V43.7772C12.1744 42.7826 12.9772 41.9798 13.9771 41.9798Z" fill="white"/>
<path fill-rule="evenodd" clip-rule="evenodd" d="M29.0161 41.9798H35.8359C36.8359 41.9798 37.6387 42.7826 37.6387 43.7772V49.0575C37.6387 50.0521 36.8349 50.8548 35.8359 50.8548H29.0161C28.0162 50.8548 27.2133 50.0521 27.2133 49.0575V43.7772C27.2133 42.7826 28.0162 41.9798 29.0161 41.9798Z" fill="white"/>
<path d="M44.193 45.1665L44.1776 61.2044C44.1776 63.6198 45.9753 64.8204 47.4379 63.7527L51.5082 60.7609L54.7429 66.8755C55.3854 68.0923 56.7479 68.62 57.802 68.0486L60.191 66.7587C61.2379 66.1874 61.5678 64.7564 60.9254 63.5396L57.6968 57.419L63.0111 55.58C64.3144 55.1294 64.155 52.9525 62.1439 51.5094L48.8015 42.7613C46.6668 41.3669 44.1981 42.3381 44.193 45.1665Z" fill="white"/>
</svg>
