<svg width="62" height="68" viewBox="0 0 62 68" fill="none" xmlns="http://www.w3.org/2000/svg">
<path fill-rule="evenodd" clip-rule="evenodd" d="M28.6011 16.2792H16.4527C16.7212 17.346 17.4107 18.193 18.2822 18.8179C19.5144 19.7004 21.0795 20.1529 22.412 20.1801C22.504 20.1816 22.3594 20.1771 22.5407 20.1771C24.0927 20.1771 25.8399 19.6618 27.0983 18.5995C27.8009 18.0064 28.3471 17.235 28.6011 16.2792ZM12.3727 18.8186C13.2435 18.1938 13.9323 17.346 14.2002 16.2792H2.0199C2.28848 17.3453 2.97862 18.1938 3.85151 18.8201C5.07951 19.7004 6.6453 20.1529 7.98336 20.1801C8.07543 20.1816 7.93076 20.1771 8.11212 20.1771C8.28379 20.1771 8.1578 20.1816 8.24433 20.1801C9.58101 20.1522 11.1461 19.6996 12.3734 18.8194L12.3727 18.8186ZM16.8493 5.43924H7.62618L2.7308 14.0851H14.5719L16.8493 5.43924ZM28.7506 5.43924V14.0851H16.661L18.9384 5.43924H28.7506ZM43.0616 16.2784H30.9131C31.1672 17.2335 31.7126 18.0056 32.4152 18.5988C33.6744 19.6618 35.4216 20.1764 36.9735 20.1764C37.1549 20.1764 37.0109 20.1809 37.1023 20.1794C38.4341 20.1522 39.9992 19.6996 41.232 18.8171C42.1035 18.193 42.7937 17.3453 43.0616 16.2784ZM45.3147 16.2784C45.5819 17.3453 46.2707 18.1938 47.1422 18.8179C48.3695 19.6981 49.9346 20.1507 51.2713 20.1786C51.3578 20.1801 51.2318 20.1756 51.4035 20.1756C51.5849 20.1756 51.4409 20.1801 51.5323 20.1786C52.8703 20.1514 54.4361 19.6988 55.6641 18.8186C56.5356 18.1938 57.2244 17.3453 57.4923 16.2777H45.3154L45.3147 16.2784ZM42.8539 14.0851L40.5765 5.43924H30.7615V14.0851H42.8539ZM42.6656 5.43924H51.8888L56.7841 14.0851H44.943L42.6656 5.43924ZM51.4402 3.24587V0.356622C51.4402 0.248578 51.4042 0.154133 51.3461 0.0884001C51.2976 0.0340001 51.2325 0 51.1626 0H8.35232C8.2824 0 8.21733 0.0340001 8.16888 0.0884001C8.11073 0.154133 8.07474 0.248578 8.07474 0.356622V3.24587H51.4388H51.4402ZM58.5458 46.0239C57.0139 44.3519 55.0626 43.1377 52.8786 42.5854L52.8689 42.5831C52.0134 42.3678 51.1218 42.2537 50.206 42.2537C46.9491 42.2537 44.0002 43.6945 41.8661 46.0239C39.732 48.3533 38.4119 51.572 38.4119 55.1268C38.4119 58.6817 39.732 61.9004 41.8661 64.2298C44.0002 66.5592 46.9491 68 50.206 68C53.4629 68 56.4117 66.5592 58.5458 64.2298C60.6799 61.9004 62 58.6817 62 55.1268C62 51.572 60.6799 48.3533 58.5458 46.0239ZM36.7188 58.3493C36.5374 57.4411 36.4315 56.502 36.4073 55.5409H3.37872V58.3493H36.7188ZM38.639 63.3511H0V60.5427H37.321C37.6706 61.5332 38.1143 62.4739 38.639 63.3511ZM50.206 40.0596C46.5684 40.0596 43.2589 41.5956 40.7932 44.1063V31.5784C40.7932 30.8886 40.4298 30.3091 39.8441 29.9306C39.4163 29.6548 38.8473 29.4833 38.2417 29.4833H21.2719C20.6655 29.4833 20.0972 29.6548 19.6694 29.9306C19.0838 30.3084 18.7204 30.8879 18.7204 31.5784V53.3475H7.41436V22.3357C7.59572 22.3508 7.77501 22.3607 7.95083 22.3644C8.13981 22.3682 8.02559 22.3705 8.11142 22.3705C8.18549 22.3705 8.08927 22.3682 8.27548 22.3644C9.95134 22.3289 11.9193 21.757 13.472 20.644C14.1967 20.1242 14.8356 19.4896 15.325 18.7393C15.8151 19.4933 16.4561 20.1303 17.1837 20.6516C18.7335 21.7615 20.7036 22.3304 22.3808 22.3652C22.5698 22.369 22.4556 22.3712 22.5414 22.3712C24.4838 22.3712 26.6961 21.7048 28.3242 20.3305C28.8787 19.862 29.3667 19.315 29.7578 18.6864C30.1489 19.315 30.6369 19.8628 31.1914 20.3305C32.8195 21.7048 35.0318 22.3712 36.9742 22.3712C37.06 22.3712 36.9458 22.369 37.1348 22.3652C38.812 22.3304 40.7821 21.7615 42.332 20.6516C43.0595 20.1303 43.7005 19.4933 44.1906 18.7393C44.6793 19.4896 45.3182 20.1242 46.0437 20.644C47.5963 21.757 49.5643 22.3297 51.2401 22.3644C51.4263 22.3682 51.3301 22.3705 51.4042 22.3705C51.49 22.3705 51.3758 22.3682 51.5648 22.3644C51.7399 22.3607 51.9178 22.3516 52.0985 22.3357V40.2001C51.4803 40.1072 50.8477 40.0596 50.206 40.0596ZM49.2009 46.5279C49.2009 45.9219 49.6508 45.4308 50.206 45.4308C50.7611 45.4308 51.2111 45.9219 51.2111 46.5279V54.4544L55.4758 56.8223C55.9701 57.0966 56.1667 57.7569 55.9154 58.2964C55.6641 58.8359 55.0591 59.0504 54.5649 58.7762L49.7893 56.1249C49.4418 55.9519 49.2009 55.5704 49.2009 55.1261V46.5279ZM28.7513 53.3468V31.6759H21.2712C21.0504 31.6759 20.8614 31.7197 20.7292 31.7915V53.3468H28.7513ZM30.7608 31.6759H38.241C38.4618 31.6759 38.6508 31.7197 38.783 31.7915V46.6646C37.5688 48.614 36.7624 50.8897 36.4973 53.3468H30.7608V31.6759ZM25.3013 41.4233V44.296C25.3013 44.9019 25.7513 45.393 26.3064 45.393C26.8616 45.393 27.3115 44.9019 27.3115 44.296V41.4233C27.3115 40.8174 26.8616 40.3263 26.3064 40.3263C25.7513 40.3263 25.3013 40.8174 25.3013 41.4233Z" fill="white"/>
</svg>
