<svg width="64" height="68" viewBox="0 0 64 68" fill="none" xmlns="http://www.w3.org/2000/svg">
<path d="M44.3411 6.0706V37.8389C44.3411 38.4421 43.7882 38.9356 43.1124 38.9356C42.4366 38.9356 41.8837 38.4421 41.8837 37.8389V6.0706C41.8837 3.93187 39.9363 2.19352 37.5404 2.19352H6.90948C4.51353 2.19352 2.56612 3.93194 2.56612 6.0706V61.9293C2.56612 64.0681 4.51361 65.8064 6.90948 65.8064H37.5404C39.2544 65.8064 40.7472 64.9235 41.4476 63.6129C41.6565 63.2345 41.7917 62.8232 41.8469 62.3899C41.8715 62.2364 41.8838 62.0883 41.8838 61.9293C41.8838 61.7428 41.933 61.5729 42.0251 61.4193H44.1999C44.292 61.5729 44.3412 61.7428 44.3412 61.9293C44.3412 62.198 44.3227 62.4393 44.2859 62.6696C44.2429 62.9932 44.1753 63.3058 44.077 63.6129C43.2661 66.1629 40.6244 68 37.5404 68H6.9095C3.16204 68 0.10878 65.2745 0.10878 61.9294V6.07063C0.10878 2.72548 3.16204 0 6.9095 0H37.5404C41.2879 0 44.3411 2.72545 44.3411 6.0706Z" fill="white"/>
<path d="M28.4599 4.387H15.9891C14.0048 4.387 12.3952 5.8238 12.3952 7.59506V7.75958C12.3952 9.53085 14.0048 10.9676 15.9891 10.9676H28.4599C30.4442 10.9676 32.0537 9.53085 32.0537 7.75958V7.59506C32.0537 5.8238 30.4442 4.387 28.4599 4.387ZM29.5964 7.7596C29.5964 8.31895 29.0865 8.77411 28.4599 8.77411H15.9891C15.3624 8.77411 14.8525 8.31894 14.8525 7.7596V7.59508C14.8525 7.03573 15.3624 6.58057 15.9891 6.58057H28.4599C29.0865 6.58057 29.5964 7.03573 29.5964 7.59508V7.7596Z" fill="white"/>
<path d="M61.5363 57.1913C61.1923 57.0871 60.8176 57.0322 60.4306 57.0322H25.794C25.4069 57.0322 25.0322 57.0871 24.6882 57.1913C23.2568 57.608 22.2247 58.809 22.2247 60.2184V60.4268C22.2247 62.1816 23.8282 63.6129 25.7941 63.6129H60.4307C62.3965 63.6129 64 62.1816 64 60.4268V60.2184C64 58.809 62.9678 57.608 61.5363 57.1913ZM61.5425 60.4268C61.5425 60.9752 61.0449 61.4194 60.4305 61.4194H25.7939C25.1796 61.4194 24.6819 60.9752 24.6819 60.4268V60.2184C24.6819 59.67 25.1795 59.2258 25.7939 59.2258H60.4305C61.0448 59.2258 61.5425 59.67 61.5425 60.2184V60.4268Z" fill="white"/>
<path d="M61.5364 57.1913C61.4688 52.7877 59.5582 48.6529 56.1486 45.5272C54.0475 43.6023 51.455 42.16 48.6598 41.3594C48.6475 41.3539 48.6413 41.3539 48.6291 41.3485C48.3157 41.2607 47.9963 41.1784 47.683 41.1072C47.0257 40.9536 46.356 40.833 45.6802 40.7507C45.5512 40.7288 45.4222 40.7123 45.2993 40.7014C45.115 40.6794 44.9307 40.663 44.7526 40.652C44.5867 40.641 44.427 40.6301 44.2611 40.6191C44.0645 40.6081 43.8741 40.5972 43.6775 40.5917C43.2966 40.5807 42.9096 40.5807 42.5225 40.5917C42.332 40.5972 42.1416 40.6081 41.9511 40.6191C41.7976 40.6191 41.6501 40.6355 41.5027 40.6465C41.3122 40.6575 41.1218 40.6794 40.9252 40.7014C40.7777 40.7123 40.6242 40.7343 40.4767 40.7562C40.3969 40.7562 40.3109 40.7726 40.231 40.7891C39.6658 40.8659 39.1006 40.9701 38.5477 41.1017C38.2283 41.1784 37.9088 41.2607 37.5955 41.3484C37.5832 41.3539 37.5771 41.3539 37.5648 41.3594C29.947 43.553 24.7991 49.8978 24.6882 57.1916C24.6821 57.2739 24.6821 57.3616 24.6821 57.4439V58.1293C24.6821 58.7326 25.235 59.2261 25.9108 59.2261H60.3138C60.9896 59.2261 61.5425 58.7326 61.5425 58.1293V57.4439C61.5425 57.3616 61.5425 57.2735 61.5364 57.1913Z" fill="white"/>
<path d="M48.6291 41.3485C48.4632 39.1495 46.6816 37.3399 44.341 36.8627C43.9478 36.786 43.5363 36.7421 43.1123 36.7421C42.6884 36.7421 42.2768 36.786 41.8837 36.8627C39.543 37.3398 37.7614 39.1495 37.5956 41.3485C37.5894 41.4582 37.5833 41.5679 37.5833 41.6776C37.5833 41.9134 37.6017 42.1437 37.6447 42.3521C37.7 42.6537 37.9028 42.9224 38.1915 43.087C38.4802 43.257 38.8304 43.3063 39.1683 43.224C41.0912 42.7744 43.1246 42.6647 45.1028 42.8895C45.7663 42.9608 46.4176 43.076 47.0565 43.224C47.1609 43.2515 47.2653 43.2624 47.3698 43.2624C47.6032 43.2624 47.8367 43.2021 48.0333 43.087C48.322 42.9224 48.5248 42.6537 48.58 42.3521C48.623 42.1437 48.6415 41.9134 48.6415 41.6776C48.6415 41.5679 48.6352 41.4582 48.6291 41.3485ZM45.2994 40.7014C45.115 40.6795 44.9307 40.6631 44.7526 40.6521C44.5867 40.6411 44.427 40.6301 44.2611 40.6192C44.0645 40.6082 43.8741 40.5972 43.6775 40.5918C43.487 40.5808 43.3028 40.5808 43.1123 40.5808C42.9219 40.5808 42.7191 40.5863 42.5225 40.5918C42.3321 40.5972 42.1416 40.6082 41.9512 40.6192C41.7976 40.6192 41.6502 40.6356 41.5027 40.6466C41.3123 40.6576 41.1218 40.6795 40.9253 40.7014C40.7778 40.7124 40.6242 40.7343 40.4768 40.7563C40.3969 40.7563 40.3109 40.7727 40.231 40.7892H40.2065C40.6181 39.7144 41.7669 38.9356 43.1123 38.9356C44.4577 38.9356 45.6065 39.7144 46.0181 40.7892C45.9075 40.7727 45.7908 40.7563 45.6802 40.7508C45.5512 40.7289 45.4222 40.7124 45.2994 40.7014Z" fill="white"/>
<path d="M26.7031 17.548H20.3816C19.7058 17.548 19.1529 17.0544 19.1529 16.4512C19.1529 15.848 19.7058 15.3544 20.3816 15.3544H26.7031C27.3789 15.3544 27.9318 15.848 27.9318 16.4512C27.9318 17.0544 27.3789 17.548 26.7031 17.548Z" fill="white"/>
<path d="M38.1973 22.8729H20.3816C19.7059 22.8729 19.153 22.3793 19.153 21.7761C19.153 21.1729 19.7059 20.6793 20.3816 20.6793H38.1973C38.8731 20.6793 39.426 21.1729 39.426 21.7761C39.426 22.3793 38.8731 22.8729 38.1973 22.8729Z" fill="white"/>
<path d="M26.7031 30.1611H20.3816C19.7058 30.1611 19.1529 29.6675 19.1529 29.0643C19.1529 28.4611 19.7058 27.9675 20.3816 27.9675H26.7031C27.3789 27.9675 27.9318 28.4611 27.9318 29.0643C27.9318 29.6675 27.3789 30.1611 26.7031 30.1611Z" fill="white"/>
<path d="M38.1973 35.486H20.3816C19.7059 35.486 19.153 34.9924 19.153 34.3892C19.153 33.786 19.7059 33.2924 20.3816 33.2924H38.1973C38.8731 33.2924 39.426 33.786 39.426 34.3892C39.426 34.9924 38.8731 35.486 38.1973 35.486Z" fill="white"/>
<path d="M8.97318 13.7098H12.1309C14.3117 13.7098 16.081 15.6565 16.081 17.2359V20.0546C16.081 22.0013 14.3117 23.5807 12.1309 23.5807H8.97318C6.7923 23.5807 5.023 21.6339 5.023 20.0546V17.2359C5.023 15.2891 6.7923 13.7098 8.97318 13.7098Z" fill="white"/>
<path d="M8.97318 26.3222H12.1309C14.3117 26.3222 16.081 28.2689 16.081 29.8483V32.667C16.081 34.6137 14.3117 36.1931 12.1309 36.1931H8.97318C6.7923 36.1931 5.023 34.2463 5.023 32.667V29.8483C5.023 27.9015 6.7923 26.3222 8.97318 26.3222Z" fill="white"/>
<path d="M8.97318 38.9353H12.1309C14.3117 38.9353 16.081 40.882 16.081 42.4614V45.2801C16.081 47.2268 14.3117 48.8062 12.1309 48.8062H8.97318C6.7923 48.8062 5.023 46.8595 5.023 45.2801V42.4614C5.023 40.5146 6.7923 38.9353 8.97318 38.9353Z" fill="white"/>
<path d="M26.7031 42.7742H20.3816C19.7058 42.7742 19.1529 42.2806 19.1529 41.6774C19.1529 41.0742 19.7058 40.5806 20.3816 40.5806H26.7031C27.3789 40.5806 27.9318 41.0742 27.9318 41.6774C27.9318 42.2806 27.3789 42.7742 26.7031 42.7742Z" fill="white"/>
<path d="M24.0673 48.0991H20.3812C19.7055 48.0991 19.1526 47.6055 19.1526 47.0023C19.1526 46.3991 19.7055 45.9055 20.3812 45.9055H24.0673C24.7431 45.9055 25.296 46.3991 25.296 47.0023C25.296 47.6055 24.7431 48.0991 24.0673 48.0991Z" fill="white"/>
</svg>
