<svg width="60" height="81" viewBox="0 0 60 81" fill="none" xmlns="http://www.w3.org/2000/svg">
<path d="M48.7699 54.1523C48.388 55.8059 47.489 57.2874 46.2453 58.4415C44.5614 60.0041 42.233 60.9762 39.674 60.9762H20.326C17.7643 60.9762 15.4386 60.0041 13.7547 58.4415C12.5083 57.2849 11.612 55.8035 11.2301 54.1523H7.16484C5.85482 54.1523 4.62171 53.8373 3.55035 53.2565C3.50527 53.2344 3.45754 53.2098 3.41246 53.1852C2.31724 52.5601 1.41296 51.6545 0.792421 50.5127C0.171886 49.3758 -0.0826924 48.1675 0.023382 46.9814C0.129456 45.7879 0.593532 44.6264 1.405 43.6002L10.8032 31.7094C11.368 19.5775 14.7067 8.56524 28.9923 0.936647C29.6579 0.582287 30.4508 0.616739 31.0634 0.968638C45.3012 8.59724 48.632 19.5947 49.1968 31.7094L58.595 43.6002C59.4065 44.6288 59.8705 45.7879 59.9766 46.9838C60.0827 48.1675 59.8281 49.3758 59.2076 50.5127C58.5844 51.652 57.6801 52.5601 56.5849 53.1852C55.4844 53.8127 54.2035 54.1523 52.8352 54.1523H48.7699ZM29.9974 30.4962C32.5166 30.4962 34.7972 31.4437 36.4493 32.9768C38.1014 34.5074 39.1224 36.6262 39.1224 38.964C39.1224 41.3018 38.1014 43.4181 36.4493 44.9512C34.7999 46.4818 32.5166 47.4317 29.9974 47.4317C27.4781 47.4317 25.1975 46.4843 23.5454 44.9512C21.8959 43.4181 20.8723 41.3018 20.8723 38.964C20.8723 36.6262 21.8933 34.5099 23.5454 32.9768C25.1975 31.4437 27.4781 30.4962 29.9974 30.4962ZM33.58 35.6369C32.6625 34.7855 31.3949 34.2613 29.9974 34.2613C28.5972 34.2613 27.3296 34.7879 26.4147 35.6369C25.4971 36.4884 24.9323 37.6646 24.9323 38.9615C24.9323 40.2608 25.4998 41.4371 26.4147 42.2861C27.3322 43.1376 28.5972 43.6617 29.9974 43.6617C31.3975 43.6617 32.6651 43.1351 33.58 42.2861C34.4949 41.4347 35.0624 40.2608 35.0624 38.9615C35.0624 37.6622 34.4949 36.4859 33.58 35.6369ZM36.3645 66.4564C36.3645 65.418 37.2741 64.5739 38.3931 64.5739C39.5122 64.5739 40.4218 65.418 40.4218 66.4564V74.026C40.4218 75.0645 39.5122 75.9085 38.3931 75.9085C37.2741 75.9085 36.3645 75.0645 36.3645 74.026V66.4564ZM27.9687 66.4564C27.9687 65.418 28.8783 64.5739 29.9974 64.5739C31.1164 64.5739 32.026 65.418 32.026 66.4564V79.1175C32.026 80.1559 31.1164 81 29.9974 81C28.8783 81 27.9687 80.1559 27.9687 79.1175V66.4564ZM19.5729 66.4564C19.5729 65.418 20.4825 64.5739 21.6016 64.5739C22.7206 64.5739 23.6302 65.418 23.6302 66.4564V74.026C23.6302 75.0645 22.7206 75.9085 21.6016 75.9085C20.4825 75.9085 19.5729 75.0645 19.5729 74.026V66.4564ZM11.0074 50.3847C10.9835 48.261 10.9252 46.2923 10.8642 44.3335C10.8005 42.264 10.7395 40.2067 10.7157 38.1667L4.66679 45.8199C4.30879 46.2702 4.10725 46.7722 4.06216 47.2742C4.01708 47.7885 4.12846 48.3176 4.4016 48.8196C4.67209 49.3167 5.06192 49.7104 5.53395 49.9762L5.6135 50.0254C6.05901 50.2592 6.58673 50.3847 7.15954 50.3847H11.0074ZM49.279 38.1667C49.2552 40.2042 49.1915 42.264 49.1305 44.3335C49.0722 46.2923 49.0138 48.261 48.9873 50.3847H52.8352C53.4424 50.3847 53.9993 50.242 54.4608 49.9762C54.9301 49.708 55.3226 49.3143 55.5931 48.8196C55.8662 48.3176 55.9803 47.7885 55.9325 47.2742C55.8875 46.7697 55.6859 46.2702 55.3279 45.8199L49.279 38.1667ZM43.376 55.7789C44.328 54.8954 44.9167 53.6773 44.9167 52.3411V52.2673C44.9194 49.8113 45.0042 47.0134 45.0864 44.2302C45.5532 28.7786 45.996 13.893 29.9947 4.74356C13.9934 13.8905 14.4389 28.7786 14.903 44.2302C14.9852 47.0134 15.07 49.8113 15.0727 52.2673V52.3411C15.0727 53.6773 15.6641 54.8954 16.6134 55.7789C17.5654 56.6623 18.8781 57.2086 20.3181 57.2086H39.666C41.106 57.2086 42.4187 56.6599 43.3707 55.7789H43.376Z" fill="#F2CD13"/>
</svg>
